<svg width="8" height="14" viewBox="0 0 8 14" fill="none" xmlns="http://www.w3.org/2000/svg">
<path d="M0.188937 6.56386L6.97775 0.166377C7.09102 0.0595778 7.24152 -3.16537e-07 7.39802 -3.23378e-07C7.55451 -3.30218e-07 7.70501 0.0595778 7.81828 0.166377L7.82559 0.173606C7.88069 0.22538 7.92457 0.2877 7.95455 0.356775C7.98454 0.425849 8 0.500235 8 0.575406C8 0.650577 7.98454 0.724963 7.95455 0.794038C7.92457 0.863113 7.88069 0.925433 7.82559 0.977207L1.43268 7.0012L7.82559 13.0228C7.88069 13.0746 7.92457 13.1369 7.95455 13.206C7.98454 13.275 8 13.3494 8 13.4246C8 13.4998 7.98454 13.5741 7.95455 13.6432C7.92457 13.7123 7.88069 13.7746 7.82559 13.8264L7.81828 13.8336C7.70501 13.9404 7.55451 14 7.39802 14C7.24152 14 7.09102 13.9404 6.97775 13.8336L0.188938 7.43614C0.129233 7.37988 0.081701 7.31221 0.0492239 7.23724C0.0167468 7.16227 3.09545e-07 7.08156 3.0598e-07 7C3.02415e-07 6.91844 0.0167468 6.83773 0.0492239 6.76276C0.081701 6.68779 0.129233 6.62012 0.188937 6.56386Z" fill="currentColor"/>
</svg>
