<svg width="33" height="32" viewBox="0 0 33 32" fill="none" xmlns="http://www.w3.org/2000/svg">
<path d="M27.813 9.547L27.043 8.987L28.149 7.559L26.42 7.034L26.714 6.131L28.415 6.733L28.373 4.92H29.325L29.283 6.733L30.977 6.131L31.271 7.034L29.549 7.559L30.641 8.987L29.871 9.547L28.849 8.063L27.813 9.547Z" fill="currentColor"/>
<path d="M13.1939 15.0869C12.0237 15.0869 10.9015 15.5518 10.074 16.3792C9.24659 17.2066 8.78174 18.3289 8.78174 19.4991C8.78174 20.6692 9.24659 21.7915 10.074 22.6189C10.9015 23.4464 12.0237 23.9112 13.1939 23.9112C14.3641 23.9112 15.4863 23.4464 16.3138 22.6189C17.1412 21.7915 17.6061 20.6692 17.6061 19.4991C17.6061 18.3289 17.1412 17.2066 16.3138 16.3792C15.4863 15.5518 14.3641 15.0869 13.1939 15.0869Z" fill="currentColor"/>
<path fill-rule="evenodd" clip-rule="evenodd" d="M6.09339 7.39231C10.8124 6.86923 15.5747 6.86923 20.2937 7.39231C22.8718 7.68012 24.9503 9.70971 25.253 12.2973C25.8126 17.0823 25.8126 21.9162 25.253 26.7013C24.9503 29.2888 22.8718 31.3184 20.2951 31.6076C15.5757 32.1308 10.8128 32.1308 6.09339 31.6076C3.51533 31.3184 1.43687 29.2888 1.13413 26.7026C0.574432 21.9171 0.574432 17.0827 1.13413 12.2973C1.43687 9.70971 3.51533 7.68012 6.09339 7.39231ZM19.9815 11.3537C19.6214 11.3537 19.2761 11.4968 19.0215 11.7514C18.7669 12.006 18.6239 12.3513 18.6239 12.7113C18.6239 13.0714 18.7669 13.4167 19.0215 13.6713C19.2761 13.9259 19.6214 14.0689 19.9815 14.0689C20.3416 14.0689 20.6869 13.9259 20.9415 13.6713C21.1961 13.4167 21.3391 13.0714 21.3391 12.7113C21.3391 12.3513 21.1961 12.006 20.9415 11.7514C20.6869 11.4968 20.3416 11.3537 19.9815 11.3537ZM6.74503 19.4993C6.74503 17.789 7.42443 16.1488 8.63377 14.9395C9.8431 13.7301 11.4833 13.0507 13.1936 13.0507C14.9038 13.0507 16.544 13.7301 17.7534 14.9395C18.9627 16.1488 19.6421 17.789 19.6421 19.4993C19.6421 21.2095 18.9627 22.8497 17.7534 24.0591C16.544 25.2684 14.9038 25.9478 13.1936 25.9478C11.4833 25.9478 9.8431 25.2684 8.63377 24.0591C7.42443 22.8497 6.74503 21.2095 6.74503 19.4993Z" fill="currentColor"/>
</svg>
