<svg width="45" height="25" viewBox="0 0 45 25" fill="none" xmlns="http://www.w3.org/2000/svg">
<path fill-rule="evenodd" clip-rule="evenodd" d="M39.879 17.5245C39.879 17.5245 43.4364 21.0163 44.3164 22.6321C44.3335 22.6554 44.3469 22.6812 44.356 22.7086C44.7146 23.3055 44.8026 23.7734 44.6266 24.1189C44.3296 24.6895 43.3242 24.9759 42.9832 25H36.6956C36.2578 25 35.347 24.8863 34.2382 24.1254C33.3912 23.5373 32.5486 22.5687 31.7324 21.6219C30.5136 20.216 29.4598 18.996 28.3928 18.996C28.258 18.9957 28.1242 19.0179 27.9968 19.0616C27.1894 19.3152 26.1642 20.4587 26.1642 23.5045C26.1642 24.4578 25.4074 25 24.8772 25H21.9974C21.0162 25 15.9078 24.6589 11.378 19.9121C5.82736 14.1005 0.842154 2.44228 0.793754 2.33951C0.483553 1.58518 1.13475 1.17413 1.83875 1.17413H8.18796C9.03936 1.17413 9.31656 1.68576 9.51016 2.14492C9.73456 2.67186 10.5662 4.7796 11.9302 7.14754C14.139 11.0001 15.4964 12.5678 16.581 12.5678C16.7847 12.5684 16.9851 12.5156 17.1618 12.4147C18.5786 11.6407 18.3146 6.61186 18.2486 5.57548C18.2486 5.37432 18.2464 3.32998 17.5204 2.3417C17.0012 1.63329 16.1168 1.35779 15.5822 1.25721C15.7252 1.05169 16.0288 0.736837 16.4182 0.550988C17.3884 0.0699665 19.1418 0 20.882 0H21.8478C23.7354 0.0262375 24.2238 0.146493 24.9102 0.319223C26.2918 0.647192 26.3182 1.53708 26.1972 4.56752C26.162 5.43336 26.1246 6.40852 26.1246 7.55641C26.1246 7.80129 26.1136 8.0746 26.1136 8.35228C26.0718 9.90686 26.0168 11.6582 27.1212 12.3776C27.2644 12.4662 27.4298 12.5132 27.5986 12.5131C27.9814 12.5131 29.1276 12.5131 32.2362 7.21095C33.6002 4.86925 34.6562 2.10775 34.7288 1.90003C34.7904 1.78415 34.9752 1.45837 35.1996 1.32718C35.3592 1.24277 35.538 1.20061 35.7188 1.20474H43.1878C44.0018 1.20474 44.554 1.32718 44.6618 1.63329C44.8422 2.12961 44.6266 3.64483 41.2166 8.22765C40.6424 8.99073 40.1386 9.65104 39.6964 10.2283C36.6054 14.2601 36.6054 14.4634 39.879 17.5245Z" fill="currentColor"/>
</svg>
