<svg width="36" height="25" viewBox="0 0 36 25" fill="none" xmlns="http://www.w3.org/2000/svg">
<path d="M14.2857 17.8571L23.5536 12.5L14.2857 7.14286V17.8571ZM34.9286 3.875C35.1607 4.71429 35.3214 5.83928 35.4286 7.26786C35.5536 8.69643 35.6071 9.92857 35.6071 11L35.7143 12.5C35.7143 16.4107 35.4286 19.2857 34.9286 21.125C34.4821 22.7321 33.4464 23.7679 31.8393 24.2143C31 24.4464 29.4643 24.6071 27.1071 24.7143C24.7857 24.8393 22.6607 24.8929 20.6964 24.8929L17.8571 25C10.375 25 5.71429 24.7143 3.875 24.2143C2.26786 23.7679 1.23214 22.7321 0.785714 21.125C0.553572 20.2857 0.392857 19.1607 0.285714 17.7321C0.160714 16.3036 0.107143 15.0714 0.107143 14L0 12.5C0 8.58929 0.285714 5.71429 0.785714 3.875C1.23214 2.26786 2.26786 1.23214 3.875 0.785714C4.71429 0.553572 6.25 0.392857 8.60714 0.285714C10.9286 0.160714 13.0536 0.107143 15.0179 0.107143L17.8571 0C25.3393 0 30 0.285714 31.8393 0.785714C33.4464 1.23214 34.4821 2.26786 34.9286 3.875Z" fill="currentColor"/>
</svg>
