<svg width="23" height="24" viewBox="0 0 23 24" fill="none" xmlns="http://www.w3.org/2000/svg">
<path d="M11.5 0C5.14868 0 0 5.23883 0 11.7014C0 18.1639 5.14868 23.4027 11.5 23.4027C17.8513 23.4027 23 18.1639 23 11.7014C23 5.23883 17.8513 0 11.5 0Z" fill="#40B3E0"/>
<path d="M17.0945 6.73108L15.0404 17.2686C15.0404 17.2686 14.7532 17.9994 13.9632 17.6486L9.22322 13.951L7.49965 13.1034L4.59824 12.1095C4.59824 12.1095 4.15297 11.9488 4.10985 11.598C4.06672 11.2473 4.61261 11.0573 4.61261 11.0573L16.1464 6.45354C16.1464 6.45354 17.0944 6.02973 17.0944 6.73126" fill="white"/>
<path d="M8.85934 17.1501C8.85934 17.1501 8.72098 17.1369 8.54848 16.5815C8.37625 16.0261 7.5 13.1031 7.5 13.1031L14.4663 8.60176C14.4663 8.60176 14.8685 8.35329 14.8542 8.60176C14.8542 8.60176 14.9259 8.64564 14.7104 8.85024C14.4951 9.05492 9.23803 13.8632 9.23803 13.8632" fill="#D2E5F1"/>
<path d="M11.043 15.3686L9.16823 17.1079C9.16823 17.1079 9.02161 17.221 8.86133 17.1501L9.22034 13.9194" fill="#B5CFE4"/>
</svg>
