<svg width="23" height="24" viewBox="0 0 23 24" fill="none" xmlns="http://www.w3.org/2000/svg">
<path d="M6.07929 20.1138L6.45528 20.3035C8.02213 21.2523 9.77685 21.695 11.5316 21.695C17.0466 21.695 21.5589 17.141 21.5589 11.5749C21.5589 8.91844 20.4934 6.32515 18.6134 4.4276C16.7332 2.53005 14.2264 1.45483 11.5316 1.45483C6.01667 1.45483 1.50434 6.00887 1.56705 11.6382C1.56705 13.5357 2.13108 15.37 3.0711 16.9512L3.32176 17.3308L2.31912 21.0626L6.07929 20.1138Z" fill="#00E676"/>
<path d="M19.6784 3.41553C17.5476 1.2018 14.6022 0 11.594 0C5.20169 0 0.06271 5.24978 0.12533 11.6381C0.12533 13.6621 0.68936 15.623 1.62947 17.3939L0 23.4027L6.079 21.8215C7.77109 22.7703 9.65113 23.213 11.5314 23.213C17.861 23.213 23 17.9632 23 11.575C23 8.47562 21.8092 5.56606 19.6785 3.41553H19.6784ZM11.594 21.2523C9.90189 21.2523 8.20979 20.8096 6.76836 19.9241L6.39237 19.7343L2.75753 20.683L3.69755 17.0778L3.44689 16.6983C0.68936 12.2075 2.00546 6.2618 6.5177 3.47873C11.0299 0.695746 16.8583 2.02404 19.6158 6.57808C22.3733 11.1321 21.0572 17.0144 16.545 19.7975C15.1035 20.7462 13.3488 21.2522 11.594 21.2522V21.2523ZM17.1089 14.2316L16.4196 13.9153C16.4196 13.9153 15.4169 13.4725 14.7902 13.1562C14.7275 13.1562 14.6649 13.093 14.6022 13.093C14.4141 13.093 14.2888 13.1562 14.1635 13.2195C14.1635 13.2195 14.1008 13.2827 13.2234 14.2948C13.1607 14.4212 13.0354 14.4845 12.9101 14.4845H12.8474C12.7847 14.4845 12.6594 14.4212 12.5967 14.358L12.2833 14.2316C11.594 13.9153 10.9673 13.5357 10.4659 13.0298C10.3406 12.9033 10.1525 12.7768 10.0272 12.6503C9.58851 12.2075 9.14981 11.7015 8.83653 11.1322L8.77382 11.0057C8.7112 10.9424 8.7112 10.8792 8.64849 10.7527C8.64849 10.6262 8.64849 10.4998 8.7112 10.4365C8.7112 10.4365 8.96186 10.1202 9.14981 9.9305C9.27523 9.80391 9.33785 9.61422 9.46318 9.48773C9.58851 9.29795 9.65122 9.04497 9.58851 8.85519C9.52589 8.53891 8.77382 6.83115 8.58587 6.45168C8.46045 6.26189 8.33521 6.19869 8.14717 6.1354H7.45781C7.33239 6.1354 7.20715 6.19869 7.08173 6.19869L7.01902 6.26189C6.89369 6.32518 6.76836 6.45168 6.64303 6.51488C6.5177 6.64146 6.45499 6.76786 6.32966 6.89444C5.89096 7.4637 5.6403 8.15944 5.6403 8.85519C5.6403 9.36115 5.76563 9.86721 5.95367 10.31L6.01638 10.4998C6.58041 11.7015 7.33239 12.7768 8.33521 13.7255L8.58587 13.9785C8.77382 14.1683 8.96186 14.2948 9.08719 14.4844C10.4033 15.623 11.9073 16.4453 13.5994 16.888C13.7875 16.9512 14.0381 16.9512 14.2262 17.0145H14.8528C15.1662 17.0145 15.5422 16.888 15.7929 16.7616C15.9809 16.6351 16.1062 16.6351 16.2315 16.5086L16.357 16.382C16.4823 16.2555 16.6076 16.1923 16.733 16.0658C16.8583 15.9393 16.9836 15.8128 17.0463 15.6862C17.1717 15.4333 17.2343 15.117 17.297 14.8008V14.358C17.297 14.358 17.2343 14.2948 17.1089 14.2316Z" fill="#F9F9F9"/>
</svg>
