<svg width="286" height="54" viewBox="0 0 286 54" fill="none" xmlns="http://www.w3.org/2000/svg">
<path d="M27.1793 54.0004C38.9793 54.0004 45.5493 54.0004 49.8293 49.7C54.1193 45.3995 54.1193 38.8236 54.1193 26.995C54.1193 15.1664 53.1193 8.58042 48.8293 4.29004C17.8093 4.29004 4.5293 21.0907 4.5293 48.6975C8.8093 52.9979 15.3693 54.0004 27.1793 54.0004Z" fill="#EC9662"/>
<path d="M49.59 4.29038C45.31 -4.77994e-07 38.74 0 26.94 0C15.14 0 8.57 0 4.29 4.30041C0 8.58077 0 15.1667 0 26.9953C0 38.824 -4.76837e-07 45.4099 4.28 49.7003C8.5 53.9406 15.26 54.1009 26.22 53.4494C37.1 52.7276 41.8 51.2841 46.12 47.0138C50.37 42.6833 52.23 37.5609 53.16 26.444C54 15.2569 53.8 8.53065 49.59 4.29038Z" fill="#E5502C"/>
<path d="M78.5219 6.14548V21.002H75.1261V9.41391H70.6692V21.002H67.2734V6.14548H78.5219ZM88.5901 21.2991C84.112 21.2991 80.8648 17.9458 80.8648 13.5737C80.8648 9.20167 84.112 5.84835 88.5901 5.84835C91.2855 5.84835 93.6625 7.18544 94.9572 9.28656L92.0283 10.9844C91.3704 9.83838 90.097 9.15922 88.5901 9.15922C85.9584 9.15922 84.2605 10.9208 84.2605 13.5737C84.2605 16.2267 85.9584 17.9882 88.5901 17.9882C90.097 17.9882 91.3916 17.3091 92.0283 16.163L94.9572 17.8609C93.6838 19.962 91.3067 21.2991 88.5901 21.2991ZM105.25 21.002V12.937L99.5199 21.002H96.9731V6.14548H100.369V14.2104L106.099 6.14548H108.646V21.002H105.25ZM123.289 21.002H119.426L116.922 16.7148L114.417 21.002H110.554L114.99 13.3827L110.767 6.14548H114.629L116.922 10.0718L119.214 6.14548H123.076L118.853 13.3827L123.289 21.002ZM131.44 21.2991C127.174 21.2991 123.715 17.9458 123.715 13.5737C123.715 9.20167 127.174 5.84835 131.44 5.84835C135.706 5.84835 139.165 9.20167 139.165 13.5737C139.165 17.9458 135.706 21.2991 131.44 21.2991ZM131.44 17.9882C133.86 17.9882 135.77 16.2267 135.77 13.5737C135.77 10.9208 133.86 9.15922 131.44 9.15922C129.021 9.15922 127.11 10.9208 127.11 13.5737C127.11 16.2267 129.021 17.9882 131.44 17.9882ZM139.591 21.002V17.8184C141.119 18.0519 142.053 17.585 142.053 15.1018V6.14548H152.325V21.002H148.929V9.41391H145.449V14.9745C145.449 20.2804 142.329 21.2991 139.591 21.002ZM162.383 21.2991C158.117 21.2991 154.658 17.9458 154.658 13.5737C154.658 9.20167 158.117 5.84835 162.383 5.84835C166.649 5.84835 170.109 9.20167 170.109 13.5737C170.109 17.9458 166.649 21.2991 162.383 21.2991ZM162.383 17.9882C164.803 17.9882 166.713 16.2267 166.713 13.5737C166.713 10.9208 164.803 9.15922 162.383 9.15922C159.964 9.15922 158.054 10.9208 158.054 13.5737C158.054 16.2267 159.964 17.9882 162.383 17.9882ZM180.935 6.14548V9.41391H175.841V21.002H172.445V6.14548H180.935ZM191.116 21.002V12.937L185.386 21.002H182.839V6.14548H186.235V14.2104L191.965 6.14548H194.512V21.002H191.116ZM205.016 6.14548H208.412V21.002H205.016V15.8234C204.188 16.1418 203.382 16.2903 202.49 16.2903C199.54 16.2903 197.163 14.5712 197.163 11.4514V6.14548H200.559V10.942C200.559 12.3215 201.408 13.0219 202.575 13.0219C203.488 13.0219 204.252 12.8733 205.016 12.5338V6.14548ZM214.774 17.7335H220.716V21.002H211.378V6.14548H220.61V9.41391H214.774V11.8758H220.079V15.1018H214.774V17.7335ZM230.042 21.2991C225.563 21.2991 222.316 17.9458 222.316 13.5737C222.316 9.20167 225.563 5.84835 230.042 5.84835C232.737 5.84835 235.114 7.18544 236.409 9.28656L233.48 10.9844C232.822 9.83838 231.548 9.15922 230.042 9.15922C227.41 9.15922 225.712 10.9208 225.712 13.5737C225.712 16.2267 227.41 17.9882 230.042 17.9882C231.548 17.9882 232.843 17.3091 233.48 16.163L236.409 17.8609C235.135 19.962 232.758 21.2991 230.042 21.2991ZM250.437 21.002H246.574L241.82 14.1255V21.002H238.425V6.14548H241.82V12.5974L246.362 6.14548H250.225L245.216 13.3827L250.437 21.002ZM260.412 21.002V12.937L254.681 21.002H252.134V6.14548H255.53V14.2104L261.261 6.14548H263.807V21.002H260.412ZM269.43 4.89329V2.13424H275.797V4.89329H269.43ZM275.054 21.002V12.937L269.324 21.002H266.777V6.14548H270.173V14.2104L275.903 6.14548H278.45V21.002H275.054ZM79.2859 47.002H75.4232L70.6692 40.1255V47.002H67.2734V32.1455H70.6692V38.5974L75.211 32.1455H79.0737L74.0649 39.3827L79.2859 47.002ZM86.6075 32.1455C89.5364 32.1455 91.8073 34.4164 91.8073 37.2391C91.8073 40.0619 89.5364 42.3328 86.6075 42.3328H84.3791V47.002H80.9833V32.1455H86.6075ZM86.6075 39.1492C87.6475 39.1492 88.4115 38.3215 88.4115 37.2391C88.4115 36.1567 87.6475 35.329 86.6075 35.329H84.3791V39.1492H86.6075ZM101.349 32.1455H104.745L100.457 42.6299C99.1415 45.8347 96.998 47.1505 94.2177 47.002V43.8184C95.767 43.967 96.6159 43.394 97.189 42.354L92.4349 32.1455H95.8307L98.7383 38.6399L101.349 32.1455ZM115.152 32.1455V35.4139H110.058V47.002H106.662V32.1455H115.152Z" fill="white"/>
<path d="M29.2093 31.3956C29.4393 30.9545 30.0093 30.8443 30.4093 31.145C31.5493 32.0071 33.0293 32.7088 34.5893 32.7088C35.7193 32.7088 36.3893 32.3579 36.7393 31.967C37.0593 31.6462 37.2893 31.165 37.2893 30.6137C37.2893 30.1927 37.1293 29.7115 36.6793 29.3206C36.1293 28.8394 35.2993 28.6088 33.9093 28.1878L32.4593 27.7367C31.5593 27.446 30.2393 26.9649 29.3693 25.9925C28.2793 24.7996 28.1493 23.286 28.1493 22.1933C28.1493 19.5469 29.1793 17.943 30.1093 17.0007C31.1993 15.9081 32.9993 14.9658 35.6093 14.9658C37.4693 14.9658 39.6093 15.4871 41.4693 16.3291C41.8893 16.5196 42.0693 17.0208 41.8593 17.4318L40.4293 20.2386C40.2093 20.6596 39.6793 20.7899 39.2793 20.5393C37.9693 19.7073 36.9693 19.6171 36.3493 19.6171C35.7993 19.6171 35.0593 19.7474 34.5193 20.2586C34.1993 20.5794 33.9693 20.9403 33.9693 21.4214C33.9693 21.8124 34.0293 22.1031 34.2593 22.3838C34.4193 22.5742 34.8093 22.9652 36.1293 23.3461L37.8293 23.8573C39.1793 24.2784 40.5993 24.7595 41.7193 25.9825C42.8093 27.1453 43.0993 28.3382 43.0993 29.8218C43.0993 31.7865 42.6193 33.6911 41.0693 35.2349C39.2393 37.0693 37.0193 37.4302 34.7393 37.4302C33.3893 37.4302 32.0993 37.2999 30.5293 36.7185C30.2293 36.6082 29.1793 36.2072 27.9093 35.4253C27.5493 35.2048 27.4193 34.7437 27.6193 34.3628L29.2093 31.3956Z" fill="white"/>
<path d="M16.1789 19.665V26.1301C16.1789 26.2685 16.2677 26.3575 16.4452 26.397C17.1158 26.4761 17.6483 26.5157 18.0427 26.5157C19.4628 26.5157 20.5574 26.1894 21.3266 25.537C22.1155 24.8648 22.51 23.9356 22.51 22.7493C22.51 20.3966 21.0209 19.2202 18.0427 19.2202C17.5497 19.2202 17.0073 19.2696 16.4156 19.3685C16.2578 19.408 16.1789 19.5069 16.1789 19.665ZM12.9246 37.3402C12.471 37.3402 12.0765 37.3756 11.7412 37.0395C11.4059 36.7034 11.2383 36.1046 11.2383 35.6498L11.2403 17.5298C11.2403 17.0553 11.3961 16.6302 11.7116 16.2546C12.0272 15.8789 12.2169 15.6713 12.6902 15.6318C14.3667 15.4736 16.1888 15.3945 17.7469 15.3945C24.0583 15.3945 27.214 17.7473 27.214 22.4527C27.214 25.0032 26.4743 26.9407 24.9951 28.2654C23.5356 29.5703 21.3858 30.2227 18.5457 30.2227C17.7962 30.2227 17.096 30.1931 16.4452 30.1337C16.2677 30.1337 16.1789 30.2128 16.1789 30.371V35.6498C16.1789 36.1046 16.0113 36.7034 15.676 37.0395C15.3407 37.3756 14.9462 37.3402 14.4926 37.3402H12.9246Z" fill="white"/>
</svg>
