<svg width="39" height="38" viewBox="0 0 39 38" fill="none" xmlns="http://www.w3.org/2000/svg">
<path d="M19.5219 37.47C27.997 37.47 32.7158 37.47 35.7898 34.486C38.871 31.5021 38.871 26.9391 38.871 18.7315C38.871 10.5238 38.1528 5.95395 35.0716 2.97693C12.792 2.97693 3.25391 14.6346 3.25391 33.7905C6.32794 36.7744 11.0395 37.47 19.5219 37.47Z" fill="#EC9662"/>
<path d="M35.6171 2.97702C32.5431 -3.31671e-07 27.8243 0 19.3492 0C10.874 0 6.15525 0 3.08122 2.98397C0 5.95404 0 10.5239 0 18.7316C0 26.9392 -3.4248e-07 31.5091 3.07403 34.4861C6.10497 37.4284 10.9602 37.5397 18.832 37.0875C26.6464 36.5867 30.0221 35.5851 33.1249 32.622C36.1773 29.6172 37.5133 26.0628 38.1812 18.349C38.7845 10.5865 38.6409 5.91926 35.6171 2.97702Z" fill="#E5502C"/>
<path d="M20.9848 22.5293C21.15 22.2233 21.5594 22.1468 21.8467 22.3555C22.6655 22.9536 23.7285 23.4405 24.8489 23.4405C25.6605 23.4405 26.1417 23.1971 26.3931 22.9258C26.6229 22.7032 26.7881 22.3694 26.7881 21.9868C26.7881 21.6947 26.6732 21.3608 26.35 21.0895C25.955 20.7557 25.3589 20.5957 24.3605 20.3035L23.3191 19.9905C22.6727 19.7888 21.7246 19.4549 21.0997 18.7802C20.3169 17.9525 20.2235 16.9022 20.2235 16.1441C20.2235 14.3078 20.9633 13.1949 21.6312 12.541C22.4141 11.7829 23.7069 11.129 25.5815 11.129C26.9174 11.129 28.4544 11.4907 29.7903 12.075C30.092 12.2072 30.2213 12.5549 30.0705 12.8401L29.0434 14.7877C28.8854 15.0798 28.5047 15.1703 28.2174 14.9964C27.2765 14.4191 26.5583 14.3565 26.113 14.3565C25.718 14.3565 25.1865 14.4469 24.7986 14.8016C24.5688 15.0242 24.4036 15.2746 24.4036 15.6085C24.4036 15.8797 24.4467 16.0815 24.6119 16.2762C24.7268 16.4084 25.0069 16.6796 25.955 16.944L27.176 17.2987C28.1456 17.5908 29.1655 17.9247 29.9699 18.7733C30.7528 19.5801 30.9611 20.4079 30.9611 21.4373C30.9611 22.8006 30.6163 24.1222 29.5031 25.1934C28.1887 26.4662 26.5942 26.7166 24.9566 26.7166C23.987 26.7166 23.0605 26.6262 21.9329 26.2228C21.7174 26.1463 20.9633 25.8681 20.0511 25.3255C19.7926 25.1725 19.6992 24.8525 19.8428 24.5882L20.9848 22.5293Z" fill="white"/>
<path d="M11.6266 14.3895V18.8755C11.6266 18.9715 11.6904 19.0333 11.8179 19.0607C12.2995 19.1156 12.682 19.143 12.9653 19.143C13.9852 19.143 14.7714 18.9167 15.3239 18.4639C15.8905 17.9975 16.1738 17.3527 16.1738 16.5296C16.1738 14.8971 15.1043 14.0808 12.9653 14.0808C12.6112 14.0808 12.2216 14.1151 11.7966 14.1837C11.6833 14.2112 11.6266 14.2798 11.6266 14.3895ZM9.28929 26.654C8.96348 26.654 8.68017 26.6785 8.43935 26.4453C8.19853 26.2121 8.07812 25.7966 8.07812 25.481L8.0796 12.9079C8.0796 12.5786 8.19145 12.2837 8.4181 12.023C8.64475 11.7624 8.78099 11.6183 9.12096 11.5909C10.3251 11.4811 11.6337 11.4263 12.7528 11.4263C17.2858 11.4263 19.5524 13.0588 19.5524 16.3238C19.5524 18.0935 19.0212 19.438 17.9587 20.3571C16.9105 21.2626 15.3664 21.7153 13.3265 21.7153C12.7882 21.7153 12.2853 21.6947 11.8179 21.6535C11.6904 21.6535 11.6266 21.7084 11.6266 21.8182V25.481C11.6266 25.7966 11.5062 26.2121 11.2654 26.4453C11.0246 26.6785 10.7413 26.654 10.4155 26.654H9.28929Z" fill="white"/>
</svg>
