<svg width="0" height="0" class="hidden">
  <symbol fill="none" xmlns="http://www.w3.org/2000/svg" viewBox="0 0 8 14" id="ic_arr_hor">
    <path d="M0.188937 6.56386L6.97775 0.166377C7.09102 0.0595778 7.24152 -3.16537e-07 7.39802 -3.23378e-07C7.55451 -3.30218e-07 7.70501 0.0595778 7.81828 0.166377L7.82559 0.173606C7.88069 0.22538 7.92457 0.2877 7.95455 0.356775C7.98454 0.425849 8 0.500235 8 0.575406C8 0.650577 7.98454 0.724963 7.95455 0.794038C7.92457 0.863113 7.88069 0.925433 7.82559 0.977207L1.43268 7.0012L7.82559 13.0228C7.88069 13.0746 7.92457 13.1369 7.95455 13.206C7.98454 13.275 8 13.3494 8 13.4246C8 13.4998 7.98454 13.5741 7.95455 13.6432C7.92457 13.7123 7.88069 13.7746 7.82559 13.8264L7.81828 13.8336C7.70501 13.9404 7.55451 14 7.39802 14C7.24152 14 7.09102 13.9404 6.97775 13.8336L0.188938 7.43614C0.129233 7.37988 0.081701 7.31221 0.0492239 7.23724C0.0167468 7.16227 3.09545e-07 7.08156 3.0598e-07 7C3.02415e-07 6.91844 0.0167468 6.83773 0.0492239 6.76276C0.081701 6.68779 0.129233 6.62012 0.188937 6.56386Z" fill="currentColor"></path>
  </symbol>
  <symbol fill="none" xmlns="http://www.w3.org/2000/svg" viewBox="0 0 7 6" id="ic_arr_ver">
    <path d="M3.5 6L0.468912 0.749999L6.53109 0.75L3.5 6Z" fill="currentColor"></path>
  </symbol>
  <symbol fill="none" xmlns="http://www.w3.org/2000/svg" viewBox="0 0 14 14" id="ic_close">
    <path d="M1 1L13 13M13 1L1 13" stroke="currentColor"></path>
  </symbol>
  <symbol fill="none" xmlns="http://www.w3.org/2000/svg" viewBox="0 0 33 32" id="ic_instagram">
    <path d="M27.813 9.547L27.043 8.987L28.149 7.559L26.42 7.034L26.714 6.131L28.415 6.733L28.373 4.92H29.325L29.283 6.733L30.977 6.131L31.271 7.034L29.549 7.559L30.641 8.987L29.871 9.547L28.849 8.063L27.813 9.547Z" fill="currentColor"></path>
    <path d="M13.1939 15.0869C12.0237 15.0869 10.9015 15.5518 10.074 16.3792C9.24659 17.2066 8.78174 18.3289 8.78174 19.4991C8.78174 20.6692 9.24659 21.7915 10.074 22.6189C10.9015 23.4464 12.0237 23.9112 13.1939 23.9112C14.3641 23.9112 15.4863 23.4464 16.3138 22.6189C17.1412 21.7915 17.6061 20.6692 17.6061 19.4991C17.6061 18.3289 17.1412 17.2066 16.3138 16.3792C15.4863 15.5518 14.3641 15.0869 13.1939 15.0869Z" fill="currentColor"></path>
    <path fill-rule="evenodd" clip-rule="evenodd" d="M6.09339 7.39231C10.8124 6.86923 15.5747 6.86923 20.2937 7.39231C22.8718 7.68012 24.9503 9.70971 25.253 12.2973C25.8126 17.0823 25.8126 21.9162 25.253 26.7013C24.9503 29.2888 22.8718 31.3184 20.2951 31.6076C15.5757 32.1308 10.8128 32.1308 6.09339 31.6076C3.51533 31.3184 1.43687 29.2888 1.13413 26.7026C0.574432 21.9171 0.574432 17.0827 1.13413 12.2973C1.43687 9.70971 3.51533 7.68012 6.09339 7.39231ZM19.9815 11.3537C19.6214 11.3537 19.2761 11.4968 19.0215 11.7514C18.7669 12.006 18.6239 12.3513 18.6239 12.7113C18.6239 13.0714 18.7669 13.4167 19.0215 13.6713C19.2761 13.9259 19.6214 14.0689 19.9815 14.0689C20.3416 14.0689 20.6869 13.9259 20.9415 13.6713C21.1961 13.4167 21.3391 13.0714 21.3391 12.7113C21.3391 12.3513 21.1961 12.006 20.9415 11.7514C20.6869 11.4968 20.3416 11.3537 19.9815 11.3537ZM6.74503 19.4993C6.74503 17.789 7.42443 16.1488 8.63377 14.9395C9.8431 13.7301 11.4833 13.0507 13.1936 13.0507C14.9038 13.0507 16.544 13.7301 17.7534 14.9395C18.9627 16.1488 19.6421 17.789 19.6421 19.4993C19.6421 21.2095 18.9627 22.8497 17.7534 24.0591C16.544 25.2684 14.9038 25.9478 13.1936 25.9478C11.4833 25.9478 9.8431 25.2684 8.63377 24.0591C7.42443 22.8497 6.74503 21.2095 6.74503 19.4993Z" fill="currentColor"></path>
  </symbol>
  <symbol fill="none" xmlns="http://www.w3.org/2000/svg" viewBox="0 0 60 22" id="ic_menu">
    <path d="M0 1H60" stroke="currentColor"></path>
    <path d="M20 11L60 11" stroke="currentColor"></path>
    <path d="M0 21H60" stroke="currentColor"></path>
  </symbol>
  <symbol fill="none" xmlns="http://www.w3.org/2000/svg" viewBox="0 0 45 25" id="ic_vk">
    <path fill-rule="evenodd" clip-rule="evenodd" d="M39.879 17.5245C39.879 17.5245 43.4364 21.0163 44.3164 22.6321C44.3335 22.6554 44.3469 22.6812 44.356 22.7086C44.7146 23.3055 44.8026 23.7734 44.6266 24.1189C44.3296 24.6895 43.3242 24.9759 42.9832 25H36.6956C36.2578 25 35.347 24.8863 34.2382 24.1254C33.3912 23.5373 32.5486 22.5687 31.7324 21.6219C30.5136 20.216 29.4598 18.996 28.3928 18.996C28.258 18.9957 28.1242 19.0179 27.9968 19.0616C27.1894 19.3152 26.1642 20.4587 26.1642 23.5045C26.1642 24.4578 25.4074 25 24.8772 25H21.9974C21.0162 25 15.9078 24.6589 11.378 19.9121C5.82736 14.1005 0.842154 2.44228 0.793754 2.33951C0.483553 1.58518 1.13475 1.17413 1.83875 1.17413H8.18796C9.03936 1.17413 9.31656 1.68576 9.51016 2.14492C9.73456 2.67186 10.5662 4.7796 11.9302 7.14754C14.139 11.0001 15.4964 12.5678 16.581 12.5678C16.7847 12.5684 16.9851 12.5156 17.1618 12.4147C18.5786 11.6407 18.3146 6.61186 18.2486 5.57548C18.2486 5.37432 18.2464 3.32998 17.5204 2.3417C17.0012 1.63329 16.1168 1.35779 15.5822 1.25721C15.7252 1.05169 16.0288 0.736837 16.4182 0.550988C17.3884 0.0699665 19.1418 0 20.882 0H21.8478C23.7354 0.0262375 24.2238 0.146493 24.9102 0.319223C26.2918 0.647192 26.3182 1.53708 26.1972 4.56752C26.162 5.43336 26.1246 6.40852 26.1246 7.55641C26.1246 7.80129 26.1136 8.0746 26.1136 8.35228C26.0718 9.90686 26.0168 11.6582 27.1212 12.3776C27.2644 12.4662 27.4298 12.5132 27.5986 12.5131C27.9814 12.5131 29.1276 12.5131 32.2362 7.21095C33.6002 4.86925 34.6562 2.10775 34.7288 1.90003C34.7904 1.78415 34.9752 1.45837 35.1996 1.32718C35.3592 1.24277 35.538 1.20061 35.7188 1.20474H43.1878C44.0018 1.20474 44.554 1.32718 44.6618 1.63329C44.8422 2.12961 44.6266 3.64483 41.2166 8.22765C40.6424 8.99073 40.1386 9.65104 39.6964 10.2283C36.6054 14.2601 36.6054 14.4634 39.879 17.5245Z" fill="currentColor"></path>
  </symbol>
  <symbol fill="none" xmlns="http://www.w3.org/2000/svg" viewBox="0 0 36 25" id="ic_youtube">
    <path d="M14.2857 17.8571L23.5536 12.5L14.2857 7.14286V17.8571ZM34.9286 3.875C35.1607 4.71429 35.3214 5.83928 35.4286 7.26786C35.5536 8.69643 35.6071 9.92857 35.6071 11L35.7143 12.5C35.7143 16.4107 35.4286 19.2857 34.9286 21.125C34.4821 22.7321 33.4464 23.7679 31.8393 24.2143C31 24.4464 29.4643 24.6071 27.1071 24.7143C24.7857 24.8393 22.6607 24.8929 20.6964 24.8929L17.8571 25C10.375 25 5.71429 24.7143 3.875 24.2143C2.26786 23.7679 1.23214 22.7321 0.785714 21.125C0.553572 20.2857 0.392857 19.1607 0.285714 17.7321C0.160714 16.3036 0.107143 15.0714 0.107143 14L0 12.5C0 8.58929 0.285714 5.71429 0.785714 3.875C1.23214 2.26786 2.26786 1.23214 3.875 0.785714C4.71429 0.553572 6.25 0.392857 8.60714 0.285714C10.9286 0.160714 13.0536 0.107143 15.0179 0.107143L17.8571 0C25.3393 0 30 0.285714 31.8393 0.785714C33.4464 1.23214 34.4821 2.26786 34.9286 3.875Z" fill="currentColor"></path>
  </symbol>
</svg>